<svg width="34" height="26" viewBox="0 0 34 26" fill="none" xmlns="http://www.w3.org/2000/svg">
<rect width="34" height="26" rx="5" fill="#F1ECEC"/>
<path fill-rule="evenodd" clip-rule="evenodd" d="M14.3445 5.46863C14.6362 5.16857 15.0319 5 15.4444 5H18.5556C18.9681 5 19.3638 5.16857 19.6555 5.46863C19.9472 5.76869 20.1111 6.17565 20.1111 6.6V8.2H22.4364C22.4412 8.19995 22.446 8.19995 22.4509 8.2H23.2222C23.6518 8.2 24 8.55817 24 9C24 9.44183 23.6518 9.8 23.2222 9.8H23.1687L22.5459 18.7704C22.5459 18.7705 22.5459 18.7703 22.5459 18.7704C22.504 19.3758 22.2406 19.9426 21.8087 20.3563C21.3768 20.77 20.8086 21 20.2184 21H13.7816C13.1914 21 12.6232 20.77 12.1913 20.3563C11.7594 19.9426 11.496 19.376 11.4541 18.7706C11.4541 18.7705 11.4541 18.7706 11.4541 18.7706L10.8313 9.8H10.7778C10.3482 9.8 10 9.44183 10 9C10 8.55817 10.3482 8.2 10.7778 8.2H11.5491C11.554 8.19995 11.5588 8.19995 11.5636 8.2H13.8889V6.6C13.8889 6.17565 14.0528 5.76869 14.3445 5.46863ZM12.3909 9.8L13.0057 18.6566C13.0197 18.8585 13.1075 19.0475 13.2514 19.1854C13.3954 19.3233 13.5848 19.4 13.7816 19.4H20.2185C20.4152 19.4 20.6046 19.3233 20.7486 19.1854C20.8925 19.0475 20.9803 18.8586 20.9943 18.6568L21.6091 9.8H12.3909ZM18.5556 8.2H15.4444V6.6H18.5556V8.2ZM15.4444 11.4C15.874 11.4 16.2222 11.7582 16.2222 12.2V17C16.2222 17.4418 15.874 17.8 15.4444 17.8C15.0149 17.8 14.6667 17.4418 14.6667 17V12.2C14.6667 11.7582 15.0149 11.4 15.4444 11.4ZM18.5556 11.4C18.9851 11.4 19.3333 11.7582 19.3333 12.2V17C19.3333 17.4418 18.9851 17.8 18.5556 17.8C18.126 17.8 17.7778 17.4418 17.7778 17V12.2C17.7778 11.7582 18.126 11.4 18.5556 11.4Z" fill="#FF0000"/>
</svg>
