<svg width="112" height="107" viewBox="0 0 112 107" fill="none" xmlns="http://www.w3.org/2000/svg">
<g clip-path="url(#clip0_1_1086)">
<path d="M107.071 18.1374H44.1638C41.9412 18.1374 39.9932 16.6453 39.4085 14.4939L37.8182 8.64351C37.2333 6.49238 35.286 5 33.0634 5H4.92871C2.20664 5.00023 0 7.21377 0 9.94434V101.863C0 104.594 2.20664 106.807 4.92871 106.807H107.071C109.793 106.807 112 104.594 112 101.863V23.0813C112 20.351 109.793 18.1374 107.071 18.1374Z" fill="#C58D38"/>
<path d="M103.654 26.3073H8.34872V57.1766H103.654V26.3073Z" fill="white"/>
<path d="M103.654 26.3073H8.34872V30.95H103.654V26.3073Z" fill="#EBF0F3"/>
<path d="M107.071 39.4446H4.92871C2.20664 39.4446 0 41.6581 0 44.3887V102.134C0 104.865 2.20664 107.079 4.92871 107.079H107.071C109.793 107.079 112 104.865 112 102.134V44.3885C112 41.6579 109.793 39.4446 107.071 39.4446Z" fill="#D6A345"/>
<path d="M48.5333 55.64C47.8732 55.64 47.2402 55.903 46.7734 56.3713C46.3067 56.8395 46.0445 57.4745 46.0445 58.1367C46.0445 58.7988 46.3067 59.4339 46.7734 59.9021C47.2402 60.3703 47.8732 60.6333 48.5333 60.6333H63.4667C64.1268 60.6333 64.7598 60.3703 65.2266 59.9021C65.6933 59.4339 65.9556 58.7988 65.9556 58.1367C65.9556 57.4745 65.6933 56.8395 65.2266 56.3713C64.7598 55.903 64.1268 55.64 63.4667 55.64H48.5333ZM41.0667 65.6267C41.0667 64.9645 41.3289 64.3295 41.7957 63.8613C42.2624 63.393 42.8955 63.13 43.5556 63.13H68.4445C69.1046 63.13 69.7376 63.393 70.2044 63.8613C70.6711 64.3295 70.9333 64.9645 70.9333 65.6267C70.9333 66.2888 70.6711 66.9239 70.2044 67.3921C69.7376 67.8603 69.1046 68.1233 68.4445 68.1233H43.5556C42.8955 68.1233 42.2624 67.8603 41.7957 67.3921C41.3289 66.9239 41.0667 66.2888 41.0667 65.6267ZM36.0889 75.6133C36.0889 74.289 36.6133 73.0189 37.5469 72.0825C38.4804 71.1461 39.7465 70.62 41.0667 70.62H70.9333C72.2535 70.62 73.5197 71.1461 74.4532 72.0825C75.3867 73.0189 75.9111 74.289 75.9111 75.6133V85.6C75.9111 86.9243 75.3867 88.1944 74.4532 89.1308C73.5197 90.0673 72.2535 90.5933 70.9333 90.5933H41.0667C39.7465 90.5933 38.4804 90.0673 37.5469 89.1308C36.6133 88.1944 36.0889 86.9243 36.0889 85.6V75.6133Z" fill="#C58D38"/>
</g>
<defs>
<clipPath id="clip0_1_1086">
<rect width="112" height="107" fill="white"/>
</clipPath>
</defs>
</svg>
