<svg width="80" height="80" viewBox="0 0 80 80" fill="none" xmlns="http://www.w3.org/2000/svg">
<rect width="80" height="80" rx="10" fill="#ECF1F1"/>
<path d="M33.625 25C33.0614 25 32.5209 25.2258 32.1224 25.6276C31.7239 26.0295 31.5 26.5745 31.5 27.1429C31.5 27.7112 31.7239 28.2562 32.1224 28.6581C32.5209 29.0599 33.0614 29.2857 33.625 29.2857H46.375C46.9386 29.2857 47.4791 29.0599 47.8776 28.6581C48.2761 28.2562 48.5 27.7112 48.5 27.1429C48.5 26.5745 48.2761 26.0295 47.8776 25.6276C47.4791 25.2258 46.9386 25 46.375 25H33.625ZM27.25 33.5714C27.25 33.0031 27.4739 32.4581 27.8724 32.0562C28.2709 31.6543 28.8114 31.4286 29.375 31.4286H50.625C51.1886 31.4286 51.7291 31.6543 52.1276 32.0562C52.5261 32.4581 52.75 33.0031 52.75 33.5714C52.75 34.1397 52.5261 34.6848 52.1276 35.0867C51.7291 35.4885 51.1886 35.7143 50.625 35.7143H29.375C28.8114 35.7143 28.2709 35.4885 27.8724 35.0867C27.4739 34.6848 27.25 34.1397 27.25 33.5714ZM23 42.1429C23 41.0062 23.4478 39.9161 24.2448 39.1124C25.0418 38.3087 26.1228 37.8571 27.25 37.8571H52.75C53.8772 37.8571 54.9582 38.3087 55.7552 39.1124C56.5522 39.9161 57 41.0062 57 42.1429V50.7143C57 51.8509 56.5522 52.941 55.7552 53.7447C54.9582 54.5485 53.8772 55 52.75 55H27.25C26.1228 55 25.0418 54.5485 24.2448 53.7447C23.4478 52.941 23 51.8509 23 50.7143V42.1429Z" fill="#3C6E71"/>
</svg>
