<svg width="80" height="80" viewBox="0 0 80 80" fill="none" xmlns="http://www.w3.org/2000/svg">
<rect width="80" height="80" rx="10" fill="#ECF1F1"/>
<path d="M29.5 25.3C28.3861 25.3 27.3179 25.7425 26.5302 26.5302C25.7425 27.3178 25.3 28.3861 25.3 29.5V33.7C25.3 34.8139 25.7425 35.8822 26.5302 36.6699C27.3179 37.4575 28.3861 37.9 29.5 37.9H33.7C34.814 37.9 35.8822 37.4575 36.6699 36.6699C37.4576 35.8822 37.9 34.8139 37.9 33.7V29.5C37.9 28.3861 37.4576 27.3178 36.6699 26.5302C35.8822 25.7425 34.814 25.3 33.7 25.3H29.5ZM29.5 42.1C28.3861 42.1 27.3179 42.5425 26.5302 43.3302C25.7425 44.1178 25.3 45.1861 25.3 46.3V50.5C25.3 51.6139 25.7425 52.6822 26.5302 53.4699C27.3179 54.2575 28.3861 54.7 29.5 54.7H33.7C34.814 54.7 35.8822 54.2575 36.6699 53.4699C37.4576 52.6822 37.9 51.6139 37.9 50.5V46.3C37.9 45.1861 37.4576 44.1178 36.6699 43.3302C35.8822 42.5425 34.814 42.1 33.7 42.1H29.5ZM42.1 29.5C42.1 28.3861 42.5425 27.3178 43.3302 26.5302C44.1179 25.7425 45.1861 25.3 46.3001 25.3H50.5C51.614 25.3 52.6822 25.7425 53.4699 26.5302C54.2576 27.3178 54.7001 28.3861 54.7001 29.5V33.7C54.7001 34.8139 54.2576 35.8822 53.4699 36.6699C52.6822 37.4575 51.614 37.9 50.5 37.9H46.3001C45.1861 37.9 44.1179 37.4575 43.3302 36.6699C42.5425 35.8822 42.1 34.8139 42.1 33.7V29.5ZM48.4001 42.1C48.957 42.1 49.4911 42.3213 49.885 42.7151C50.2788 43.1089 50.5 43.643 50.5 44.2V46.3H52.6C53.157 46.3 53.6912 46.5213 54.085 46.9151C54.4788 47.3089 54.7001 47.8431 54.7001 48.4C54.7001 48.957 54.4788 49.4911 54.085 49.8849C53.6912 50.2788 53.157 50.5 52.6 50.5H50.5V52.6C50.5 53.157 50.2788 53.6911 49.885 54.0849C49.4911 54.4788 48.957 54.7 48.4001 54.7C47.8431 54.7 47.309 54.4788 46.9151 54.0849C46.5213 53.6911 46.3001 53.157 46.3001 52.6V50.5H44.2001C43.6431 50.5 43.109 50.2788 42.7151 49.8849C42.3213 49.4911 42.1 48.957 42.1 48.4C42.1 47.8431 42.3213 47.3089 42.7151 46.9151C43.109 46.5213 43.6431 46.3 44.2001 46.3H46.3001V44.2C46.3001 43.643 46.5213 43.1089 46.9151 42.7151C47.309 42.3213 47.8431 42.1 48.4001 42.1Z" fill="#3C6E71"/>
</svg>
