<svg width="80" height="80" viewBox="0 0 80 80" fill="none" xmlns="http://www.w3.org/2000/svg">
<rect width="80" height="80" rx="10" fill="#ECF1F1"/>
<path d="M37.5005 19.9997C36.8375 19.9997 36.2016 20.2631 35.7327 20.732C35.2639 21.2008 35.0005 21.8367 35.0005 22.4998C35.0005 23.1628 35.2639 23.7987 35.7327 24.2675C36.2016 24.7364 36.8375 24.9998 37.5005 24.9998H42.5006C43.1636 24.9998 43.7995 24.7364 44.2684 24.2675C44.7372 23.7987 45.0006 23.1628 45.0006 22.4998C45.0006 21.8367 44.7372 21.2008 44.2684 20.732C43.7995 20.2631 43.1636 19.9997 42.5006 19.9997H37.5005Z" fill="#3C6E71"/>
<path fill-rule="evenodd" clip-rule="evenodd" d="M24.9998 27.4999C24.9998 26.1738 25.5265 24.902 26.4642 23.9643C27.4019 23.0266 28.6737 22.4998 29.9998 22.4998C29.9998 24.4889 30.79 26.3966 32.1965 27.8032C33.6031 29.2097 35.5108 29.9999 37.4999 29.9999H42.5C44.4891 29.9999 46.3968 29.2097 47.8034 27.8032C49.2099 26.3966 50.0001 24.4889 50.0001 22.4998C51.3262 22.4998 52.598 23.0266 53.5357 23.9643C54.4734 24.902 55.0001 26.1738 55.0001 27.4999V55.0002C55.0001 56.3263 54.4734 57.5981 53.5357 58.5358C52.598 59.4735 51.3262 60.0003 50.0001 60.0003H29.9998C28.6737 60.0003 27.4019 59.4735 26.4642 58.5358C25.5265 57.5981 24.9998 56.3263 24.9998 55.0002V27.4999ZM49.2676 41.7675C49.723 41.296 49.975 40.6645 49.9693 40.009C49.9636 39.3535 49.7006 38.7265 49.2371 38.2629C48.7736 37.7994 48.1465 37.5365 47.491 37.5308C46.8355 37.5251 46.204 37.7771 45.7325 38.2325L37.4999 46.4651L34.2674 43.2326C33.7959 42.7772 33.1644 42.5252 32.5089 42.5309C31.8533 42.5366 31.2263 42.7995 30.7628 43.263C30.2993 43.7265 30.0363 44.3536 30.0306 45.0091C30.0249 45.6646 30.2769 46.2961 30.7323 46.7676L35.7324 51.7677C36.2012 52.2363 36.837 52.4996 37.4999 52.4996C38.1628 52.4996 38.7986 52.2363 39.2674 51.7677L49.2676 41.7675Z" fill="#3C6E71"/>
</svg>
