<svg width="64" height="64" viewBox="0 0 64 64" fill="none" xmlns="http://www.w3.org/2000/svg">
<path fill-rule="evenodd" clip-rule="evenodd" d="M1.6349 8.19014C0 11.3988 0 15.5992 0 24V40C0 48.4008 0 52.6012 1.6349 55.8099C3.073 58.6323 5.36771 60.927 8.19014 62.3651C11.3988 64 15.5992 64 24 64H40C48.4008 64 52.6012 64 55.8099 62.3651C58.6323 60.927 60.927 58.6323 62.3651 55.8099C64 52.6012 64 48.4008 64 40V24C64 15.5992 64 11.3988 62.3651 8.19014C60.927 5.36771 58.6323 3.073 55.8099 1.6349C52.6012 0 48.4008 0 40 0H24C15.5992 0 11.3988 0 8.19014 1.6349C5.36771 3.073 3.073 5.36771 1.6349 8.19014ZM40.6603 16C36.8113 9.33333 27.1888 9.33332 23.3398 16L12.0814 35.5C8.23241 42.1667 13.0437 50.5 20.7417 50.5H43.2583C50.9563 50.5 55.7676 42.1667 51.9186 35.5L40.6603 16Z" fill="#3C6E71"/>
</svg>
